<svg width="26" height="25" viewBox="0 0 26 25" fill="none" xmlns="http://www.w3.org/2000/svg">
<g clip-path="url(#clip0_2_394)">
<path d="M23.7206 9L21.8212 20.1414C21.5868 21.5159 21.4697 22.2032 21.1639 22.7172C20.8941 23.1705 20.5227 23.5275 20.091 23.7489C19.6012 24 19.0039 24 17.809 24H9.1741C7.97926 24 7.38183 24 6.89215 23.7489C6.46033 23.5275 6.08906 23.1705 5.81932 22.7172C5.51343 22.2032 5.39627 21.5159 5.16193 20.1414L3.26252 9M1.98389 9H24.9992M8.37704 13.5V13.515M18.6061 13.5V13.515M5.81978 9L9.65567 0M21.1633 9L17.3274 0" stroke="#E07A7A" stroke-width="3" stroke-linecap="round" stroke-linejoin="round"/>
</g>
<defs>
<clipPath id="clip0_2_394">
<rect width="25.0167" height="25" fill="white" transform="translate(0.983276)"/>
</clipPath>
</defs>
</svg>
