<svg width="27" height="25" viewBox="0 0 27 25" fill="none" xmlns="http://www.w3.org/2000/svg">
<path d="M8.54202 1.23142C6.41815 2.45753 4.89877 4.43762 4.26408 6.80647C3.62926 9.17532 3.95518 11.6497 5.18129 13.7736C6.8167 16.606 9.86607 18.3656 13.1397 18.3656C14.1734 18.3656 15.199 18.1877 16.1713 17.8463L20.3015 25L23.2464 23.2997L19.1169 16.1472C20.5118 14.9537 21.5161 13.3708 22.0015 11.5591C22.6362 9.19028 22.3103 6.71602 21.0842 4.59201C19.4489 1.7596 16.3994 0 13.1259 0C11.5224 0 9.93735 0.425753 8.54202 1.23142ZM18.1393 6.2923C18.9113 7.62955 19.1165 9.18756 18.7168 10.6791C18.3172 12.1706 17.3605 13.4172 16.0233 14.1893C15.1443 14.6968 14.1471 14.965 13.1397 14.965C11.0772 14.965 9.15616 13.857 8.12633 12.0733C7.35426 10.736 7.14914 9.17817 7.54891 7.68654C7.94855 6.19505 8.9052 4.94839 10.2424 4.17619C11.1213 3.66882 12.1185 3.40058 13.1259 3.40058C15.1885 3.40058 17.1094 4.50863 18.1393 6.2923Z" fill="#E07A7A"/>
</svg>
